<?xml version="1.0" encoding="UTF-8" standalone="no"?>
<svg
   width="100"
   height="155"
   viewBox="0 0 31.442527 48.73592"
   version="1.1"
   id="svg893"
   inkscape:version="1.2 (1:1.2.1+202207142221+cd75a1ee6d)"
   sodipodi:docname="pinttrs_logo_light.svg"
   xmlns:inkscape="http://www.inkscape.org/namespaces/inkscape"
   xmlns:sodipodi="http://sodipodi.sourceforge.net/DTD/sodipodi-0.dtd"
   xmlns="http://www.w3.org/2000/svg"
   xmlns:svg="http://www.w3.org/2000/svg"
   xmlns:rdf="http://www.w3.org/1999/02/22-rdf-syntax-ns#"
   xmlns:cc="http://creativecommons.org/ns#"
   xmlns:dc="http://purl.org/dc/elements/1.1/">
  <defs
     id="defs887" />
  <sodipodi:namedview
     id="base"
     pagecolor="#222222"
     bordercolor="#666666"
     borderopacity="1.0"
     inkscape:pageopacity="0"
     inkscape:pageshadow="2"
     inkscape:zoom="3.959798"
     inkscape:cx="42.300138"
     inkscape:cy="130.94102"
     inkscape:document-units="mm"
     inkscape:current-layer="layer1"
     inkscape:document-rotation="0"
     showgrid="false"
     fit-margin-top="5"
     fit-margin-left="5"
     fit-margin-right="5"
     fit-margin-bottom="5"
     units="px"
     inkscape:window-width="2488"
     inkscape:window-height="1376"
     inkscape:window-x="72"
     inkscape:window-y="27"
     inkscape:window-maximized="1"
     inkscape:showpageshadow="2"
     inkscape:pagecheckerboard="false"
     inkscape:deskcolor="#222222"
     inkscape:lockguides="false"
     showguides="true" />
  <metadata
     id="metadata890">
    <rdf:RDF>
      <cc:Work
         rdf:about="">
        <dc:format>image/svg+xml</dc:format>
        <dc:type
           rdf:resource="http://purl.org/dc/dcmitype/StillImage" />
      </cc:Work>
    </rdf:RDF>
  </metadata>
  <g
     inkscape:label="Layer 1"
     inkscape:groupmode="layer"
     id="layer1"
     transform="translate(-85.159893,-132.19667)">
    <g
       id="g842"
       transform="matrix(0.6626546,0,0,0.6626546,35.713181,53.217928)"
       style="fill:#d9d9d9;fill-opacity:1">
      <path
         d="m 109.11554,176.29011 v -9.60879 c 3.84607,-0.22628 5.5354,-1.8265 7.0552,-4.44674 1.64426,-2.83579 1.8373,-12.6249 1.83926,-12.72386 V 132.8212 a 0.9544131,0.9544131 0 0 0 -0.98773,-0.91618 h -7.90673 v -7.89105 H 78.492005 v 52.27614 h 30.623535 m 0.53012,-41.88639 h 5.58537 c 0.29395,0 0.53404,0.32554 0.53404,0.72318 v 13.85073 c 0,0.0785 -0.10585,8.89546 -0.99459,11.13746 a 5.233594,5.233594 0 0 1 -5.1258,3.53445 c -0.29395,0 -0.53404,-0.32517 -0.53404,-0.72315 v -27.79852 c 0,-0.3988 0.24006,-0.72315 0.53404,-0.72315 m -0.53012,44.09506 H 78.492005 a 2.2096525,2.2096525 0 0 1 -2.214551,-2.20967 v -52.27614 a 2.2096525,2.2096525 0 0 1 2.214551,-2.21164 h 30.623535 a 2.2096525,2.2096525 0 0 1 2.21161,2.20771 v 5.68335 h 5.69218 a 3.1660254,3.1660254 0 0 1 3.19934,3.12389 v 16.69636 q 0,0.0185 0,0.0393 c 0,0.0259 -0.049,2.57221 -0.31258,5.49425 -0.55069,6.09981 -1.50903,7.75288 -1.82357,8.29574 -1.33265,2.30178 -3.09351,4.48889 -6.75438,5.27182 v 7.67647 a 2.2096525,2.2096525 0 0 1 -2.21162,2.20767 z m 2.20769,-41.88639 V 161.044 a 3.2983106,3.2983106 0 0 0 1.3934,-1.73928 c 0.0706,-0.17925 0.43605,-1.29153 0.67809,-5.68339 0.12936,-2.35174 0.15873,-4.47419 0.16169,-4.65251 v -12.35347 h -2.23219 z"
         id="path2160"
         style="fill:#d9d9d9;fill-opacity:1;stroke-width:0.979889" />
      <path
         id="path2164"
         style="fill:#d9d9d9;fill-opacity:1;stroke-width:0.979889"
         d="m 86.843438,126.5347 a 10.288848,10.288848 0 0 0 -6.235316,2.03442 v 43.57642 a 2.8798975,2.8798975 0 0 0 0.380854,1.16553 1.7451846,1.7451846 0 0 0 0.855493,0.58755 h 24.292471 a 0.86622295,0.86622295 0 0 0 0.69855,-0.40191 3.0376597,3.0376597 0 0 0 0.22967,-1.19616 v -43.73143 a 16.510171,16.510171 0 0 1 -8.086016,1.60572 c -4.46536,-0.31353 -6.570546,-3.27287 -11.171131,-3.58655 a 10.288848,10.288848 0 0 0 -0.964575,-0.0536 z m 13.381622,14.94907 h 0.088 c 0.362,0.0122 0.72905,0.058 1.09281,0.14353 0.12136,0.0293 0.23417,0.0623 0.35023,0.0957 l 0.0823,0.0267 -0.006,0.8019 c 0.34395,0.13374 0.67015,0.30466 0.96458,0.5091 l 0.65071,-0.46699 0.0689,0.0555 c 0.38572,0.30822 0.72806,0.6655 1.01435,1.06219 l 0.0478,0.0689 -0.47655,0.65263 c 0.18084,0.29438 0.33183,0.61125 0.44401,0.9416 l 0.79808,0.004 0.0229,0.0861 v 0.004 c 0.12033,0.44905 0.18423,0.91721 0.18565,1.39137 0,0.0314 -0.004,0.0622 -0.004,0.0918 v 0.0842 l -0.7751,0.24688 c -0.0195,0.2127 -0.0535,0.42603 -0.10335,0.64305 -0.0248,0.0996 -0.05,0.19851 -0.0803,0.29665 l 0.64113,0.47272 -0.0306,0.0842 c -0.18506,0.48657 -0.43634,0.93676 -0.74066,1.33204 l -0.0498,0.067 -0.77319,-0.25645 c -0.19356,0.21977 -0.40994,0.41861 -0.63922,0.59711 l 0.24114,0.76363 -0.0727,0.0498 c -0.42994,0.2877 -0.9005,0.51381 -1.3952,0.66602 l -0.0823,0.0268 -0.47272,-0.65836 c -0.2654,0.0608 -0.53474,0.0999 -0.81147,0.11101 l -0.25454,0.76554 -0.0861,-0.002 c -0.370497,-0.008 -0.745717,-0.0546 -1.121524,-0.14164 -0.142604,-0.0344 -0.280259,-0.0738 -0.417218,-0.11674 l -0.08231,-0.0267 0.0059,-0.80765 c -0.254429,-0.10221 -0.496599,-0.22524 -0.723434,-0.36746 l -0.660279,0.47272 -0.06889,-0.0498 c -0.424635,-0.30679 -0.792701,-0.6766 -1.106208,-1.08706 l -0.0536,-0.0689 0.476551,-0.64689 c -0.157469,-0.24169 -0.291136,-0.49618 -0.401912,-0.76171 l -0.815298,-0.002 -0.02675,-0.0804 c -0.160291,-0.4809 -0.250598,-0.98862 -0.269852,-1.50811 l -0.0039,-0.0881 0.761718,-0.24114 c 0.0099,-0.30146 0.04733,-0.60626 0.120565,-0.91291 0.002,-0.008 0.0039,-0.0156 0.0078,-0.0229 l -0.654538,-0.4823 0.02293,-0.0785 c 0.15641,-0.48905 0.37908,-0.94021 0.652626,-1.34927 l 0.04782,-0.0747 0.757886,0.25071 c 0.210187,-0.27495 0.449368,-0.52252 0.711949,-0.74066 l -0.244972,-0.77128 0.06889,-0.0498 c 0.400922,-0.28768 0.841128,-0.51732 1.307164,-0.68324 l 0.08417,-0.0345 0.461245,0.65262 c 0.345715,-0.0996 0.70799,-0.16125 1.071754,-0.17607 z m -0.0498,3.9942 c -0.628819,0 -1.199948,0.43063 -1.349274,1.06793 -0.02332,0.10777 -0.03439,0.21252 -0.03439,0.3177 0,0.6274 0.427291,1.19723 1.066013,1.34352 0.106142,0.0274 0.211181,0.0383 0.317701,0.0383 0.62739,0 1.1952,-0.42904 1.34734,-1.06601 0.0248,-0.10666 0.0364,-0.21295 0.0364,-0.31961 h -0.002 c 0,-0.6246 -0.42962,-1.19576 -1.06409,-1.34352 -0.1076,-0.026 -0.21545,-0.0383 -0.3177,-0.0383 z m -10.034315,2.57795 c 0.174116,0 0.346019,0.0119 0.514824,0.0229 l 0.0976,0.004 0.258368,1.12343 c 0.541772,0.072 1.061682,0.2071 1.552136,0.40191 l 0.755966,-0.86315 0.08995,0.0402 c 0.63978,0.30254 1.229792,0.69258 1.760745,1.15022 l 0.07085,0.0613 -0.455492,1.06601 c 0.363412,0.36094 0.685865,0.76488 0.956922,1.20189 l 1.117682,-0.25644 0.04782,0.0899 c 0.332986,0.62208 0.585161,1.29274 0.738749,2.00189 l 0.01911,0.0957 -1.000939,0.59521 c 0.04556,0.30902 0.06879,0.62472 0.06889,0.94735 0,0 0,0.002 0,0.002 -6.9e-5,0.15829 -0.0078,0.31384 -0.01911,0.46507 l 1.052618,0.44975 -0.01147,0.0995 c -0.09944,0.73815 -0.302796,1.44455 -0.593294,2.09567 l -0.03635,0.088 -1.165531,-0.10526 c -0.204542,0.38288 -0.443821,0.74758 -0.717701,1.07941 l 0.589473,0.98563 -0.06889,0.0727 c -0.504605,0.54034 -1.084739,1.00702 -1.726293,1.38563 l -0.08231,0.0498 -0.876542,-0.76554 c -0.362001,0.1784 -0.73915,0.32606 -1.132998,0.43828 l -0.103349,1.15214 -0.0976,0.0229 c -0.518411,0.1111 -1.053901,0.17033 -1.603806,0.17033 -0.210186,0 -0.417041,-0.012 -0.616253,-0.0268 l -0.09953,-0.008 -0.258368,-1.12725 c -0.402333,-0.0593 -0.796533,-0.15709 -1.171273,-0.28708 l -0.76937,0.87845 -0.08613,-0.0383 c -0.689666,-0.29162 -1.327251,-0.6822 -1.896616,-1.15214 l -0.07467,-0.0632 0.451671,-1.05836 c -0.309626,-0.29018 -0.589502,-0.6125 -0.838267,-0.95692 l -1.140651,0.25836 -0.04978,-0.0804 c -0.38005,-0.61786 -0.674272,-1.28999 -0.868888,-2.00763 l -0.02489,-0.0957 0.983722,-0.58563 c -0.08848,-0.42854 -0.135892,-0.87783 -0.135892,-1.33396 0,-0.0193 5e-4,-0.0331 0.002,-0.0516 l -1.073675,-0.45932 0.0078,-0.0938 c 0.05517,-0.73107 0.21489,-1.43448 0.465065,-2.09375 l 0.03253,-0.0938 1.13874,0.10144 c 0.207364,-0.46429 0.468878,-0.90143 0.773192,-1.29952 l -0.595205,-0.99902 0.0631,-0.0727 c 0.462851,-0.52794 1.000664,-0.99225 1.592322,-1.37797 l 0.08417,-0.0555 0.861236,0.75405 c 0.460009,-0.25961 0.955246,-0.46725 1.473657,-0.61243 l 0.10526,-1.15021 0.0976,-0.0172 c 0.506025,-0.10518 1.02957,-0.16268 1.567442,-0.16268 z m 0,5.66117 c -1.118555,0.004 -2.021524,0.90759 -2.022935,2.02294 9.8e-4,1.1168 0.90438,2.02153 2.022935,2.02293 1.11679,-9.8e-4 2.021023,-0.90613 2.021023,-2.02293 0,-1.11535 -0.904233,-2.01923 -2.021023,-2.02294 z" />
    </g>
    <g
       aria-label="Pinttrs"
       id="text416"
       style="font-size:8.28876px;font-family:'Franklin Gothic FS';-inkscape-font-specification:'Franklin Gothic FS';text-align:end;letter-spacing:0px;word-spacing:0px;text-anchor:end;fill:#d9d9d9;stroke-width:0.518047">
      <path
         d="m 86.901582,178.7478 h 0.687967 v -2.24625 h 1.342779 c 1.00294,0 1.715773,-0.67968 1.715773,-1.63289 0,-0.50561 -0.240374,-1.01951 -0.605079,-1.30133 -0.290107,-0.23209 -0.687967,-0.34813 -1.185293,-0.34813 h -1.956147 z m 0.687967,-2.81818 v -2.13021 h 1.317913 c 0.613368,0 1.036095,0.43931 1.036095,1.06925 0,0.63824 -0.431016,1.06096 -1.085828,1.06096 z"
         id="path293" />
      <path
         d="m 91.369206,173.92374 h 0.687967 v -0.70454 h -0.687967 z m 0.02487,4.82406 h 0.638235 v -4.08636 h -0.638235 z"
         id="path295" />
      <path
         d="m 93.300472,178.7478 h 0.638234 v -2.24625 c 0,-0.80401 0.489037,-1.4008 1.143849,-1.4008 0.547058,0 0.845454,0.35641 0.845454,1.01952 v 2.62753 h 0.59679 v -2.36229 c 0,-0.60508 -0.04144,-0.91177 -0.149197,-1.11899 -0.232085,-0.44759 -0.663101,-0.71283 -1.177004,-0.71283 -0.563636,0 -0.886897,0.21551 -1.309624,0.86203 v -0.75428 h -0.588502 z"
         id="path297" />
      <path
         d="m 97.768104,177.62053 c 0,0.82059 0.39786,1.24332 1.168715,1.24332 0.174064,0 0.323261,-0.008 0.605079,-0.0497 v -0.50561 c -0.223796,0.0414 -0.339839,0.0497 -0.489037,0.0497 -0.439304,0 -0.6631,-0.21551 -0.6631,-0.63823 v -2.56123 h 0.920052 v -0.49733 h -0.920052 v -1.07753 l -0.596791,0.0497 -0.02487,1.0278 h -0.721122 v 0.49733 h 0.721122 z"
         id="path299" />
      <path
         d="m 100.32103,177.62053 c 0,0.82059 0.39786,1.24332 1.16872,1.24332 0.17406,0 0.32326,-0.008 0.60508,-0.0497 v -0.50561 c -0.2238,0.0414 -0.33984,0.0497 -0.48904,0.0497 -0.43931,0 -0.6631,-0.21551 -0.6631,-0.63823 v -2.56123 h 0.92005 v -0.49733 h -0.92005 v -1.07753 l -0.59679,0.0497 -0.0249,1.0278 h -0.721121 v 0.49733 h 0.721121 z"
         id="path301" />
      <path
         d="m 102.79936,178.7478 h 0.63823 v -2.16336 c 0,-0.87032 0.60508,-1.48369 1.37594,-1.41738 v -0.60508 c -0.0912,-0.008 -0.18236,-0.0166 -0.23209,-0.0166 -0.31497,0 -0.62165,0.14091 -0.80401,0.35642 -0.1492,0.18235 -0.22379,0.30668 -0.42272,0.71283 v -0.95321 h -0.55535 z"
         id="path303" />
      <path
         d="m 106.49612,176.25289 c -0.43101,-0.0746 -0.63823,-0.26524 -0.63823,-0.57193 0,-0.3647 0.34813,-0.60508 0.87861,-0.60508 0.52219,0 0.85374,0.20722 1.04438,0.63824 l 0.58021,-0.12433 c -0.19893,-0.67968 -0.75427,-1.0361 -1.60801,-1.0361 -0.92835,0 -1.54171,0.48075 -1.54171,1.20187 0,0.58021 0.40614,1.00294 1.1024,1.12727 l 0.86203,0.15749 c 0.46417,0.0829 0.70455,0.30668 0.70455,0.62994 0,0.39786 -0.38958,0.6631 -0.9615,0.6631 -0.38957,0 -0.77085,-0.11604 -1.00294,-0.30668 -0.13262,-0.10775 -0.19893,-0.23208 -0.26524,-0.46417 l -0.60508,0.12433 c 0.0995,0.35642 0.20722,0.53048 0.42273,0.71283 0.34813,0.2984 0.82058,0.45589 1.39251,0.45589 1.00294,0 1.68262,-0.50562 1.68262,-1.25161 0,-0.6631 -0.40615,-1.06096 -1.24332,-1.21016 z"
         id="path305" />
    </g>
  </g>
</svg>
